<svg xmlns="http://www.w3.org/2000/svg" xmlns:xlink="http://www.w3.org/1999/xlink" width="1366" zoomAndPan="magnify" viewBox="0 0 1024.5 576" height="768" preserveAspectRatio="xMidYMid meet" version="1.0"><defs><filter x="0%" y="0%" width="100%" height="100%" id="ccc2608aa5"><feColorMatrix values="0 0 0 0 1 0 0 0 0 1 0 0 0 0 1 0 0 0 1 0" color-interpolation-filters="sRGB"/></filter><clipPath id="e19eb18791"><path d="M 450 117 L 503 117 L 503 225 L 450 225 Z M 450 117 " clip-rule="nonzero"/></clipPath><clipPath id="10d86727e1"><path d="M 441.113281 123.15625 L 484.90625 112.167969 L 511.6875 218.917969 L 467.894531 229.90625 Z M 441.113281 123.15625 " clip-rule="nonzero"/></clipPath><clipPath id="0dad44fdf2"><path d="M 463.007812 117.660156 C 450.914062 120.695312 447.105469 147.046875 454.5 176.519531 C 461.894531 205.992188 477.691406 227.425781 489.785156 224.390625 C 501.878906 221.359375 505.6875 195.007812 498.296875 165.535156 C 490.902344 136.058594 475.105469 114.628906 463.007812 117.660156 Z M 463.007812 117.660156 " clip-rule="nonzero"/></clipPath><clipPath id="83b69b1a8e"><path d="M 515 115 L 567 115 L 567 224 L 515 224 Z M 515 115 " clip-rule="nonzero"/></clipPath><clipPath id="41d4a153f5"><path d="M 532.230469 110.523438 L 576.03125 121.496094 L 549.292969 228.257812 L 505.492188 217.289062 Z M 532.230469 110.523438 " clip-rule="nonzero"/></clipPath><clipPath id="86435e9a72"><path d="M 554.128906 116.011719 C 542.035156 112.980469 526.246094 134.421875 518.863281 163.894531 C 511.480469 193.371094 515.300781 219.722656 527.398438 222.753906 C 539.492188 225.78125 555.28125 204.339844 562.664062 174.867188 C 570.046875 145.390625 566.226562 119.039062 554.128906 116.011719 Z M 554.128906 116.011719 " clip-rule="nonzero"/></clipPath><clipPath id="966b91022d"><path d="M 455.972656 269.746094 L 568 269.746094 L 568 378.300781 L 455.972656 378.300781 Z M 455.972656 269.746094 " clip-rule="nonzero"/></clipPath><clipPath id="816e843383"><path d="M 512 269.746094 C 481.054688 269.746094 455.972656 294.046875 455.972656 324.023438 C 455.972656 354 481.054688 378.300781 512 378.300781 C 542.945312 378.300781 568.03125 354 568.03125 324.023438 C 568.03125 294.046875 542.945312 269.746094 512 269.746094 Z M 512 269.746094 " clip-rule="nonzero"/></clipPath><clipPath id="90ceba3ea9"><path d="M 446.816406 182.488281 L 577.453125 182.488281 L 577.453125 297.414062 L 446.816406 297.414062 Z M 446.816406 182.488281 " clip-rule="nonzero"/></clipPath><clipPath id="300505ef0b"><path d="M 512 182.488281 C 476 182.488281 446.816406 208.214844 446.816406 239.949219 C 446.816406 271.6875 476 297.414062 512 297.414062 C 548 297.414062 577.183594 271.6875 577.183594 239.949219 C 577.183594 208.214844 548 182.488281 512 182.488281 Z M 512 182.488281 " clip-rule="nonzero"/></clipPath><clipPath id="816f68fb4b"><path d="M 461 136 L 487 136 L 487 185 L 461 185 Z M 461 136 " clip-rule="nonzero"/></clipPath><clipPath id="dab8590bf0"><path d="M 456.613281 139.089844 L 478.566406 133.582031 L 490.703125 181.953125 L 468.746094 187.460938 Z M 456.613281 139.089844 " clip-rule="nonzero"/></clipPath><clipPath id="7e11a3ee9b"><path d="M 467.589844 136.335938 C 461.527344 137.859375 459.328125 149.90625 462.671875 163.25 C 466.019531 176.59375 473.648438 186.175781 479.710938 184.65625 C 485.773438 183.136719 487.976562 171.085938 484.628906 157.742188 C 481.28125 144.398438 473.652344 134.816406 467.589844 136.335938 Z M 467.589844 136.335938 " clip-rule="nonzero"/></clipPath><clipPath id="e57100394a"><path d="M 530 136 L 556 136 L 556 185 L 530 185 Z M 530 136 " clip-rule="nonzero"/></clipPath><clipPath id="ec7428ece1"><path d="M 538.410156 133.585938 L 560.367188 139.082031 L 548.25 187.457031 L 526.292969 181.957031 Z M 538.410156 133.585938 " clip-rule="nonzero"/></clipPath><clipPath id="fcaa9d342f"><path d="M 549.386719 136.332031 C 543.324219 134.816406 535.699219 144.402344 532.359375 157.746094 C 529.015625 171.089844 531.222656 183.140625 537.285156 184.660156 C 543.347656 186.175781 550.972656 176.589844 554.316406 163.246094 C 557.65625 149.902344 555.453125 137.851562 549.386719 136.332031 Z M 549.386719 136.332031 " clip-rule="nonzero"/></clipPath><clipPath id="7f25522782"><path d="M 519.175781 234.890625 L 526.308594 234.890625 L 526.308594 243.859375 L 519.175781 243.859375 Z M 519.175781 234.890625 " clip-rule="nonzero"/></clipPath><clipPath id="e2c9613b63"><path d="M 522.742188 234.890625 C 520.773438 234.890625 519.175781 236.894531 519.175781 239.363281 C 519.175781 241.832031 520.773438 243.835938 522.742188 243.835938 C 524.710938 243.835938 526.308594 241.832031 526.308594 239.363281 C 526.308594 236.894531 524.710938 234.890625 522.742188 234.890625 Z M 522.742188 234.890625 " clip-rule="nonzero"/></clipPath><clipPath id="74074a53b8"><path d="M 506.113281 250.921875 L 518.605469 250.921875 L 518.605469 258.15625 L 506.113281 258.15625 Z M 506.113281 250.921875 " clip-rule="nonzero"/></clipPath><clipPath id="d8ca7798c3"><path d="M 512.359375 250.921875 C 508.910156 250.921875 506.113281 252.542969 506.113281 254.539062 C 506.113281 256.539062 508.910156 258.15625 512.359375 258.15625 C 515.808594 258.15625 518.601562 256.539062 518.601562 254.539062 C 518.601562 252.542969 515.808594 250.921875 512.359375 250.921875 Z M 512.359375 250.921875 " clip-rule="nonzero"/></clipPath><clipPath id="a9d151d59e"><path d="M 498.367188 234.890625 L 505.5 234.890625 L 505.5 243.859375 L 498.367188 243.859375 Z M 498.367188 234.890625 " clip-rule="nonzero"/></clipPath><clipPath id="5cd2d19f38"><path d="M 501.933594 234.890625 C 499.964844 234.890625 498.367188 236.894531 498.367188 239.363281 C 498.367188 241.832031 499.964844 243.835938 501.933594 243.835938 C 503.902344 243.835938 505.5 241.832031 505.5 239.363281 C 505.5 236.894531 503.902344 234.890625 501.933594 234.890625 Z M 501.933594 234.890625 " clip-rule="nonzero"/></clipPath><mask id="2a28a62b0d"><g filter="url(#ccc2608aa5)"><rect x="-102.45" width="1229.4" fill="#000000" y="-57.6" height="691.2" fill-opacity="0.38"/></g></mask><clipPath id="04470aa79d"><path d="M 0.304688 0.667969 L 36.308594 0.667969 L 36.308594 29.648438 L 0.304688 29.648438 Z M 0.304688 0.667969 " clip-rule="nonzero"/></clipPath><clipPath id="779224ee94"><path d="M 18.289062 0.667969 C 8.355469 0.667969 0.304688 7.15625 0.304688 15.15625 C 0.304688 23.160156 8.355469 29.648438 18.289062 29.648438 C 28.21875 29.648438 36.273438 23.160156 36.273438 15.15625 C 36.273438 7.15625 28.21875 0.667969 18.289062 0.667969 Z M 18.289062 0.667969 " clip-rule="nonzero"/></clipPath><clipPath id="bf8934f095"><rect x="0" width="37" y="0" height="30"/></clipPath><mask id="a0d12c2700"><g filter="url(#ccc2608aa5)"><rect x="-102.45" width="1229.4" fill="#000000" y="-57.6" height="691.2" fill-opacity="0.38"/></g></mask><clipPath id="50bde86a44"><path d="M 0.613281 0.667969 L 36.617188 0.667969 L 36.617188 29.648438 L 0.613281 29.648438 Z M 0.613281 0.667969 " clip-rule="nonzero"/></clipPath><clipPath id="d11e43e41b"><path d="M 18.597656 0.667969 C 8.664062 0.667969 0.613281 7.15625 0.613281 15.15625 C 0.613281 23.160156 8.664062 29.648438 18.597656 29.648438 C 28.527344 29.648438 36.582031 23.160156 36.582031 15.15625 C 36.582031 7.15625 28.527344 0.667969 18.597656 0.667969 Z M 18.597656 0.667969 " clip-rule="nonzero"/></clipPath><clipPath id="8ae8214893"><rect x="0" width="37" y="0" height="30"/></clipPath><clipPath id="3c3dd63770"><path d="M 551 307 L 591 307 L 591 349 L 551 349 Z M 551 307 " clip-rule="nonzero"/></clipPath><clipPath id="c802b65ef2"><path d="M 543.453125 319.972656 L 567.601562 299.519531 L 597.886719 335.273438 L 573.734375 355.726562 Z M 543.453125 319.972656 " clip-rule="nonzero"/></clipPath><clipPath id="8a40b4b499"><path d="M 555.527344 309.746094 C 548.859375 315.394531 550.230469 327.976562 558.589844 337.847656 C 566.953125 347.71875 579.136719 351.140625 585.804688 345.492188 C 592.472656 339.84375 591.101562 327.265625 582.742188 317.390625 C 574.378906 307.519531 562.195312 304.097656 555.527344 309.746094 Z M 555.527344 309.746094 " clip-rule="nonzero"/></clipPath><clipPath id="580220c495"><path d="M 476.398438 361.609375 L 510.015625 361.609375 L 510.015625 403 L 476.398438 403 Z M 476.398438 361.609375 " clip-rule="nonzero"/></clipPath><clipPath id="52166e62dd"><path d="M 487.609375 402.015625 C 489.332031 402.601562 491.292969 402.988281 493.214844 402.988281 C 495.140625 402.988281 496.988281 402.65625 498.695312 402.070312 C 498.730469 402.054688 498.769531 402.054688 498.804688 402.035156 C 505.207031 399.691406 509.925781 393.5 510.015625 386.265625 L 510.015625 361.609375 L 476.398438 361.609375 L 476.398438 386.246094 C 476.488281 393.535156 481.132812 399.726562 487.609375 402.015625 Z M 487.609375 402.015625 " clip-rule="nonzero"/></clipPath><clipPath id="ac9d1aa3bf"><path d="M 431 306 L 471 306 L 471 349 L 431 349 Z M 431 306 " clip-rule="nonzero"/></clipPath><clipPath id="aee32df893"><path d="M 454.046875 299.46875 L 478.386719 319.699219 L 448.441406 355.734375 L 424.101562 335.507812 Z M 454.046875 299.46875 " clip-rule="nonzero"/></clipPath><clipPath id="6a82e4958d"><path d="M 466.214844 309.585938 C 459.492188 304 447.34375 307.535156 439.074219 317.484375 C 430.808594 327.4375 429.554688 340.03125 436.273438 345.613281 C 442.996094 351.199219 455.148438 347.664062 463.417969 337.714844 C 471.683594 327.761719 472.9375 315.167969 466.214844 309.585938 Z M 466.214844 309.585938 " clip-rule="nonzero"/></clipPath><clipPath id="2a2152bf86"><path d="M 515.496094 362.472656 L 549.113281 362.472656 L 549.113281 403.972656 L 515.496094 403.972656 Z M 515.496094 362.472656 " clip-rule="nonzero"/></clipPath><clipPath id="c2e2bdb214"><path d="M 526.707031 402.878906 C 528.429688 403.464844 530.390625 403.851562 532.3125 403.851562 C 534.238281 403.851562 536.085938 403.519531 537.792969 402.933594 C 537.828125 402.917969 537.867188 402.917969 537.902344 402.898438 C 544.304688 400.554688 549.023438 394.363281 549.113281 387.128906 L 549.113281 362.472656 L 515.496094 362.472656 L 515.496094 387.109375 C 515.585938 394.398438 520.230469 400.589844 526.707031 402.878906 Z M 526.707031 402.878906 " clip-rule="nonzero"/></clipPath></defs><g clip-path="url(#e19eb18791)"><g clip-path="url(#10d86727e1)"><g clip-path="url(#0dad44fdf2)"><path fill="#ffffff" d="M 441.113281 123.15625 L 484.90625 112.167969 L 511.6875 218.917969 L 467.894531 229.90625 Z M 441.113281 123.15625 " fill-opacity="1" fill-rule="nonzero"/></g></g></g><g clip-path="url(#83b69b1a8e)"><g clip-path="url(#41d4a153f5)"><g clip-path="url(#86435e9a72)"><path fill="#ffffff" d="M 532.230469 110.523438 L 576.03125 121.496094 L 549.292969 228.257812 L 505.492188 217.289062 Z M 532.230469 110.523438 " fill-opacity="1" fill-rule="nonzero"/></g></g></g><g clip-path="url(#966b91022d)"><g clip-path="url(#816e843383)"><path fill="#ffffff" d="M 455.972656 269.746094 L 567.917969 269.746094 L 567.917969 378.300781 L 455.972656 378.300781 Z M 455.972656 269.746094 " fill-opacity="1" fill-rule="nonzero"/></g></g><g clip-path="url(#90ceba3ea9)"><g clip-path="url(#300505ef0b)"><path fill="#ffffff" d="M 446.816406 182.488281 L 577.003906 182.488281 L 577.003906 297.414062 L 446.816406 297.414062 Z M 446.816406 182.488281 " fill-opacity="1" fill-rule="nonzero"/></g></g><g clip-path="url(#816f68fb4b)"><g clip-path="url(#dab8590bf0)"><g clip-path="url(#7e11a3ee9b)"><path fill="#ffd0e9" d="M 456.613281 139.089844 L 478.566406 133.582031 L 490.679688 181.867188 L 468.726562 187.375 Z M 456.613281 139.089844 " fill-opacity="1" fill-rule="nonzero"/></g></g></g><g clip-path="url(#e57100394a)"><g clip-path="url(#ec7428ece1)"><g clip-path="url(#fcaa9d342f)"><path fill="#ffd0e9" d="M 538.410156 133.585938 L 560.367188 139.082031 L 548.273438 187.371094 L 526.316406 181.871094 Z M 538.410156 133.585938 " fill-opacity="1" fill-rule="nonzero"/></g></g></g><g clip-path="url(#7f25522782)"><g clip-path="url(#e2c9613b63)"><path fill="#000000" d="M 519.175781 234.890625 L 526.308594 234.890625 L 526.308594 243.832031 L 519.175781 243.832031 Z M 519.175781 234.890625 " fill-opacity="1" fill-rule="nonzero"/></g></g><g clip-path="url(#74074a53b8)"><g clip-path="url(#d8ca7798c3)"><path fill="#ffd0e9" d="M 506.113281 250.921875 L 518.605469 250.921875 L 518.605469 258.15625 L 506.113281 258.15625 Z M 506.113281 250.921875 " fill-opacity="1" fill-rule="nonzero"/></g></g><g clip-path="url(#a9d151d59e)"><g clip-path="url(#5cd2d19f38)"><path fill="#000000" d="M 498.367188 234.890625 L 505.5 234.890625 L 505.5 243.832031 L 498.367188 243.832031 Z M 498.367188 234.890625 " fill-opacity="1" fill-rule="nonzero"/></g></g><g mask="url(#2a28a62b0d)"><g transform="matrix(1, 0, 0, 1, 532, 243)"><g clip-path="url(#bf8934f095)"><g clip-path="url(#04470aa79d)"><g clip-path="url(#779224ee94)"><path fill="#ffd0e9" d="M 0.304688 0.667969 L 36.308594 0.667969 L 36.308594 29.648438 L 0.304688 29.648438 Z M 0.304688 0.667969 " fill-opacity="1" fill-rule="nonzero"/></g></g></g></g></g><g mask="url(#a0d12c2700)"><g transform="matrix(1, 0, 0, 1, 456, 243)"><g clip-path="url(#8ae8214893)"><g clip-path="url(#50bde86a44)"><g clip-path="url(#d11e43e41b)"><path fill="#ffd0e9" d="M 0.613281 0.667969 L 36.617188 0.667969 L 36.617188 29.648438 L 0.613281 29.648438 Z M 0.613281 0.667969 " fill-opacity="1" fill-rule="nonzero"/></g></g></g></g></g><g clip-path="url(#3c3dd63770)"><g clip-path="url(#c802b65ef2)"><g clip-path="url(#8a40b4b499)"><path fill="#ffffff" d="M 543.453125 319.972656 L 567.601562 299.519531 L 597.886719 335.273438 L 573.734375 355.726562 Z M 543.453125 319.972656 " fill-opacity="1" fill-rule="nonzero"/></g></g></g><g clip-path="url(#580220c495)"><g clip-path="url(#52166e62dd)"><path fill="#ffffff" d="M 476.398438 361.609375 L 510.015625 361.609375 L 510.015625 402.976562 L 476.398438 402.976562 Z M 476.398438 361.609375 " fill-opacity="1" fill-rule="nonzero"/></g></g><g clip-path="url(#ac9d1aa3bf)"><g clip-path="url(#aee32df893)"><g clip-path="url(#6a82e4958d)"><path fill="#ffffff" d="M 454.046875 299.46875 L 478.386719 319.699219 L 448.441406 355.734375 L 424.101562 335.507812 Z M 454.046875 299.46875 " fill-opacity="1" fill-rule="nonzero"/></g></g></g><g clip-path="url(#2a2152bf86)"><g clip-path="url(#c2e2bdb214)"><path fill="#ffffff" d="M 515.496094 362.472656 L 549.113281 362.472656 L 549.113281 403.839844 L 515.496094 403.839844 Z M 515.496094 362.472656 " fill-opacity="1" fill-rule="nonzero"/></g></g></svg>