<svg xmlns="http://www.w3.org/2000/svg" xmlns:xlink="http://www.w3.org/1999/xlink" width="500" zoomAndPan="magnify" viewBox="0 0 375 374.999991" height="500" preserveAspectRatio="xMidYMid meet" version="1.0"><defs><filter x="0%" y="0%" width="100%" height="100%" id="b2109ca46b"><feColorMatrix values="0 0 0 0 1 0 0 0 0 1 0 0 0 0 1 0 0 0 1 0" color-interpolation-filters="sRGB"/></filter><clipPath id="16a2f9f907"><path d="M 127 47 L 179 47 L 179 155 L 127 155 Z M 127 47 " clip-rule="nonzero"/></clipPath><clipPath id="88439d90ae"><path d="M 117.585938 53.402344 L 161.402344 42.410156 L 188.195312 149.214844 L 144.378906 160.207031 Z M 117.585938 53.402344 " clip-rule="nonzero"/></clipPath><clipPath id="2458dc3cd3"><path d="M 139.492188 47.90625 C 127.394531 50.941406 123.582031 77.304688 130.980469 106.792969 C 138.375 136.28125 154.179688 157.722656 166.28125 154.6875 C 178.382812 151.652344 182.191406 125.289062 174.796875 95.800781 C 167.398438 66.3125 151.59375 44.871094 139.492188 47.90625 Z M 139.492188 47.90625 " clip-rule="nonzero"/></clipPath><clipPath id="79a5a6f896"><path d="M 191 45 L 243 45 L 243 154 L 191 154 Z M 191 45 " clip-rule="nonzero"/></clipPath><clipPath id="e94235e543"><path d="M 208.746094 40.765625 L 252.566406 51.742188 L 225.816406 158.554688 L 181.996094 147.582031 Z M 208.746094 40.765625 " clip-rule="nonzero"/></clipPath><clipPath id="1b2bab03cc"><path d="M 230.65625 46.253906 C 218.554688 43.222656 202.757812 64.671875 195.375 94.164062 C 187.988281 123.652344 191.8125 150.015625 203.910156 153.046875 C 216.011719 156.078125 231.808594 134.628906 239.195312 105.136719 C 246.582031 75.648438 242.757812 49.285156 230.65625 46.253906 Z M 230.65625 46.253906 " clip-rule="nonzero"/></clipPath><clipPath id="683cef1f45"><path d="M 132.449219 200.066406 L 244.875 200.066406 L 244.875 308.671875 L 132.449219 308.671875 Z M 132.449219 200.066406 " clip-rule="nonzero"/></clipPath><clipPath id="5a0b35b9ab"><path d="M 188.507812 200.066406 C 157.546875 200.066406 132.449219 224.378906 132.449219 254.367188 C 132.449219 284.359375 157.546875 308.671875 188.507812 308.671875 C 219.464844 308.671875 244.5625 284.359375 244.5625 254.367188 C 244.5625 224.378906 219.464844 200.066406 188.507812 200.066406 Z M 188.507812 200.066406 " clip-rule="nonzero"/></clipPath><clipPath id="939ad35776"><path d="M 123.289062 112.761719 L 253.992188 112.761719 L 253.992188 227.746094 L 123.289062 227.746094 Z M 123.289062 112.761719 " clip-rule="nonzero"/></clipPath><clipPath id="7194f07594"><path d="M 188.507812 112.761719 C 152.488281 112.761719 123.289062 138.503906 123.289062 170.253906 C 123.289062 202.007812 152.488281 227.746094 188.507812 227.746094 C 224.523438 227.746094 253.722656 202.007812 253.722656 170.253906 C 253.722656 138.503906 224.523438 112.761719 188.507812 112.761719 Z M 188.507812 112.761719 " clip-rule="nonzero"/></clipPath><clipPath id="606caf2783"><path d="M 137 66 L 163 66 L 163 116 L 137 116 Z M 137 66 " clip-rule="nonzero"/></clipPath><clipPath id="52d1728e86"><path d="M 133.09375 69.34375 L 155.058594 63.835938 L 167.199219 112.226562 L 145.234375 117.738281 Z M 133.09375 69.34375 " clip-rule="nonzero"/></clipPath><clipPath id="036464737f"><path d="M 144.074219 66.589844 C 138.011719 68.113281 135.808594 80.167969 139.15625 93.515625 C 142.503906 106.867188 150.136719 116.457031 156.203125 114.933594 C 162.269531 113.414062 164.472656 101.355469 161.121094 88.007812 C 157.773438 74.65625 150.140625 65.070312 144.074219 66.589844 Z M 144.074219 66.589844 " clip-rule="nonzero"/></clipPath><clipPath id="36a1293d45"><path d="M 207 66 L 233 66 L 233 116 L 207 116 Z M 207 66 " clip-rule="nonzero"/></clipPath><clipPath id="fe3973c16f"><path d="M 214.929688 63.835938 L 236.898438 69.339844 L 224.777344 117.734375 L 202.808594 112.234375 Z M 214.929688 63.835938 " clip-rule="nonzero"/></clipPath><clipPath id="80e798e8ad"><path d="M 225.914062 66.585938 C 219.847656 65.066406 212.21875 74.660156 208.875 88.011719 C 205.53125 101.363281 207.738281 113.417969 213.804688 114.9375 C 219.871094 116.453125 227.5 106.863281 230.84375 93.511719 C 234.1875 80.160156 231.980469 68.105469 225.914062 66.585938 Z M 225.914062 66.585938 " clip-rule="nonzero"/></clipPath><clipPath id="4bd24e0570"><path d="M 195.6875 165.191406 L 202.820312 165.191406 L 202.820312 174.167969 L 195.6875 174.167969 Z M 195.6875 165.191406 " clip-rule="nonzero"/></clipPath><clipPath id="1b0dae17a8"><path d="M 199.253906 165.191406 C 197.285156 165.191406 195.6875 167.195312 195.6875 169.667969 C 195.6875 172.136719 197.285156 174.140625 199.253906 174.140625 C 201.222656 174.140625 202.820312 172.136719 202.820312 169.667969 C 202.820312 167.195312 201.222656 165.191406 199.253906 165.191406 Z M 199.253906 165.191406 " clip-rule="nonzero"/></clipPath><clipPath id="1956b18ffd"><path d="M 182.617188 181.230469 L 195.117188 181.230469 L 195.117188 188.472656 L 182.617188 188.472656 Z M 182.617188 181.230469 " clip-rule="nonzero"/></clipPath><clipPath id="ec0b6a4509"><path d="M 188.863281 181.230469 C 185.414062 181.230469 182.617188 182.851562 182.617188 184.851562 C 182.617188 186.851562 185.414062 188.472656 188.863281 188.472656 C 192.316406 188.472656 195.113281 186.851562 195.113281 184.851562 C 195.113281 182.851562 192.316406 181.230469 188.863281 181.230469 Z M 188.863281 181.230469 " clip-rule="nonzero"/></clipPath><clipPath id="9bcdf23033"><path d="M 174.867188 165.191406 L 182 165.191406 L 182 174.167969 L 174.867188 174.167969 Z M 174.867188 165.191406 " clip-rule="nonzero"/></clipPath><clipPath id="4ae6026f72"><path d="M 178.433594 165.191406 C 176.464844 165.191406 174.867188 167.195312 174.867188 169.667969 C 174.867188 172.136719 176.464844 174.140625 178.433594 174.140625 C 180.40625 174.140625 182 172.136719 182 169.667969 C 182 167.195312 180.40625 165.191406 178.433594 165.191406 Z M 178.433594 165.191406 " clip-rule="nonzero"/></clipPath><mask id="e453596a87"><g filter="url(#b2109ca46b)"><rect x="-37.5" width="450" fill="#000000" y="-37.499999" height="449.999989" fill-opacity="0.38"/></g></mask><clipPath id="07398aa74f"><path d="M 0.820312 0.972656 L 36.839844 0.972656 L 36.839844 29.96875 L 0.820312 29.96875 Z M 0.820312 0.972656 " clip-rule="nonzero"/></clipPath><clipPath id="d45b81f76c"><path d="M 18.8125 0.972656 C 8.875 0.972656 0.820312 7.464844 0.820312 15.472656 C 0.820312 23.480469 8.875 29.96875 18.8125 29.96875 C 28.75 29.96875 36.804688 23.480469 36.804688 15.472656 C 36.804688 7.464844 28.75 0.972656 18.8125 0.972656 Z M 18.8125 0.972656 " clip-rule="nonzero"/></clipPath><clipPath id="a7ec67e61a"><rect x="0" width="38" y="0" height="31"/></clipPath><mask id="719aa9e1fd"><g filter="url(#b2109ca46b)"><rect x="-37.5" width="450" fill="#000000" y="-37.499999" height="449.999989" fill-opacity="0.38"/></g></mask><clipPath id="2641525cce"><path d="M 1.09375 0.972656 L 37.113281 0.972656 L 37.113281 29.96875 L 1.09375 29.96875 Z M 1.09375 0.972656 " clip-rule="nonzero"/></clipPath><clipPath id="0ec0820430"><path d="M 19.085938 0.972656 C 9.148438 0.972656 1.09375 7.464844 1.09375 15.472656 C 1.09375 23.480469 9.148438 29.96875 19.085938 29.96875 C 29.023438 29.96875 37.078125 23.480469 37.078125 15.472656 C 37.078125 7.464844 29.023438 0.972656 19.085938 0.972656 Z M 19.085938 0.972656 " clip-rule="nonzero"/></clipPath><clipPath id="e27f540263"><rect x="0" width="38" y="0" height="31"/></clipPath><clipPath id="01099741e0"><path d="M 227 237 L 267 237 L 267 279 L 227 279 Z M 227 237 " clip-rule="nonzero"/></clipPath><clipPath id="eef7e92a7a"><path d="M 219.972656 250.316406 L 244.136719 229.851562 L 274.433594 265.621094 L 250.273438 286.085938 Z M 219.972656 250.316406 " clip-rule="nonzero"/></clipPath><clipPath id="bd9cf70487"><path d="M 232.054688 240.085938 C 225.382812 245.734375 226.753906 258.324219 235.121094 268.199219 C 243.484375 278.074219 255.675781 281.5 262.347656 275.847656 C 269.019531 270.199219 267.648438 257.609375 259.28125 247.734375 C 250.917969 237.859375 238.726562 234.433594 232.054688 240.085938 Z M 232.054688 240.085938 " clip-rule="nonzero"/></clipPath><clipPath id="f6c2d35602"><path d="M 152.886719 291.972656 L 186.523438 291.972656 L 186.523438 333.492188 L 152.886719 333.492188 Z M 152.886719 291.972656 " clip-rule="nonzero"/></clipPath><clipPath id="a1765b10fb"><path d="M 164.105469 332.398438 C 165.828125 332.984375 167.789062 333.371094 169.714844 333.371094 C 171.636719 333.371094 173.488281 333.042969 175.195312 332.453125 C 175.230469 332.4375 175.269531 332.4375 175.304688 332.417969 C 181.710938 330.074219 186.433594 323.878906 186.523438 316.640625 L 186.523438 291.972656 L 152.886719 291.972656 L 152.886719 316.621094 C 152.976562 323.914062 157.625 330.109375 164.105469 332.398438 Z M 164.105469 332.398438 " clip-rule="nonzero"/></clipPath><clipPath id="ae61effeaf"><path d="M 108 237 L 148 237 L 148 279 L 108 279 Z M 108 237 " clip-rule="nonzero"/></clipPath><clipPath id="229cd39bf1"><path d="M 130.523438 229.804688 L 154.875 250.039062 L 124.917969 286.09375 L 100.5625 265.859375 Z M 130.523438 229.804688 " clip-rule="nonzero"/></clipPath><clipPath id="014718eb52"><path d="M 142.699219 239.921875 C 135.976562 234.335938 123.816406 237.875 115.546875 247.828125 C 107.273438 257.78125 106.019531 270.382812 112.746094 275.972656 C 119.46875 281.558594 131.628906 278.019531 139.898438 268.066406 C 148.171875 258.109375 149.425781 245.511719 142.699219 239.921875 Z M 142.699219 239.921875 " clip-rule="nonzero"/></clipPath><clipPath id="80877339d6"><path d="M 192.003906 292.835938 L 225.640625 292.835938 L 225.640625 334.355469 L 192.003906 334.355469 Z M 192.003906 292.835938 " clip-rule="nonzero"/></clipPath><clipPath id="1162d77d94"><path d="M 203.222656 333.265625 C 204.945312 333.851562 206.90625 334.234375 208.832031 334.234375 C 210.753906 334.234375 212.605469 333.90625 214.3125 333.320312 C 214.347656 333.300781 214.386719 333.300781 214.421875 333.28125 C 220.828125 330.9375 225.546875 324.742188 225.640625 317.503906 L 225.640625 292.835938 L 192.003906 292.835938 L 192.003906 317.484375 C 192.09375 324.777344 196.742188 330.972656 203.222656 333.265625 Z M 203.222656 333.265625 " clip-rule="nonzero"/></clipPath></defs><rect x="-37.5" width="450" fill="#ffffff" y="-37.499999" height="449.999989" fill-opacity="1"/><rect x="-37.5" width="450" fill="#e6f4ff" y="-37.499999" height="449.999989" fill-opacity="1"/><g clip-path="url(#16a2f9f907)"><g clip-path="url(#88439d90ae)"><g clip-path="url(#2458dc3cd3)"><path fill="#ffffff" d="M 117.585938 53.402344 L 161.402344 42.410156 L 188.195312 149.214844 L 144.378906 160.207031 Z M 117.585938 53.402344 " fill-opacity="1" fill-rule="nonzero"/></g></g></g><g clip-path="url(#79a5a6f896)"><g clip-path="url(#e94235e543)"><g clip-path="url(#1b2bab03cc)"><path fill="#ffffff" d="M 208.746094 40.765625 L 252.566406 51.742188 L 225.816406 158.554688 L 181.996094 147.582031 Z M 208.746094 40.765625 " fill-opacity="1" fill-rule="nonzero"/></g></g></g><g clip-path="url(#683cef1f45)"><g clip-path="url(#5a0b35b9ab)"><path fill="#ffffff" d="M 132.449219 200.066406 L 244.449219 200.066406 L 244.449219 308.671875 L 132.449219 308.671875 Z M 132.449219 200.066406 " fill-opacity="1" fill-rule="nonzero"/></g></g><g clip-path="url(#939ad35776)"><g clip-path="url(#7194f07594)"><path fill="#ffffff" d="M 123.289062 112.761719 L 253.542969 112.761719 L 253.542969 227.746094 L 123.289062 227.746094 Z M 123.289062 112.761719 " fill-opacity="1" fill-rule="nonzero"/></g></g><g clip-path="url(#606caf2783)"><g clip-path="url(#52d1728e86)"><g clip-path="url(#036464737f)"><path fill="#ffd0e9" d="M 133.09375 69.34375 L 155.058594 63.835938 L 167.175781 112.140625 L 145.210938 117.652344 Z M 133.09375 69.34375 " fill-opacity="1" fill-rule="nonzero"/></g></g></g><g clip-path="url(#36a1293d45)"><g clip-path="url(#fe3973c16f)"><g clip-path="url(#80e798e8ad)"><path fill="#ffd0e9" d="M 214.929688 63.835938 L 236.898438 69.339844 L 224.796875 117.648438 L 202.828125 112.148438 Z M 214.929688 63.835938 " fill-opacity="1" fill-rule="nonzero"/></g></g></g><g clip-path="url(#4bd24e0570)"><g clip-path="url(#1b0dae17a8)"><path fill="#000000" d="M 195.6875 165.191406 L 202.820312 165.191406 L 202.820312 174.140625 L 195.6875 174.140625 Z M 195.6875 165.191406 " fill-opacity="1" fill-rule="nonzero"/></g></g><g clip-path="url(#1956b18ffd)"><g clip-path="url(#ec0b6a4509)"><path fill="#ffd0e9" d="M 182.617188 181.230469 L 195.117188 181.230469 L 195.117188 188.472656 L 182.617188 188.472656 Z M 182.617188 181.230469 " fill-opacity="1" fill-rule="nonzero"/></g></g><g clip-path="url(#9bcdf23033)"><g clip-path="url(#4ae6026f72)"><path fill="#000000" d="M 174.867188 165.191406 L 182 165.191406 L 182 174.140625 L 174.867188 174.140625 Z M 174.867188 165.191406 " fill-opacity="1" fill-rule="nonzero"/></g></g><g mask="url(#e453596a87)"><g transform="matrix(1, 0, 0, 1, 208, 173)"><g clip-path="url(#a7ec67e61a)"><g clip-path="url(#07398aa74f)"><g clip-path="url(#d45b81f76c)"><path fill="#ffd0e9" d="M 0.820312 0.972656 L 36.839844 0.972656 L 36.839844 29.96875 L 0.820312 29.96875 Z M 0.820312 0.972656 " fill-opacity="1" fill-rule="nonzero"/></g></g></g></g></g><g mask="url(#719aa9e1fd)"><g transform="matrix(1, 0, 0, 1, 132, 173)"><g clip-path="url(#e27f540263)"><g clip-path="url(#2641525cce)"><g clip-path="url(#0ec0820430)"><path fill="#ffd0e9" d="M 1.09375 0.972656 L 37.113281 0.972656 L 37.113281 29.96875 L 1.09375 29.96875 Z M 1.09375 0.972656 " fill-opacity="1" fill-rule="nonzero"/></g></g></g></g></g><g clip-path="url(#01099741e0)"><g clip-path="url(#eef7e92a7a)"><g clip-path="url(#bd9cf70487)"><path fill="#ffffff" d="M 219.972656 250.316406 L 244.136719 229.851562 L 274.433594 265.621094 L 250.273438 286.085938 Z M 219.972656 250.316406 " fill-opacity="1" fill-rule="nonzero"/></g></g></g><g clip-path="url(#f6c2d35602)"><g clip-path="url(#a1765b10fb)"><path fill="#ffffff" d="M 152.886719 291.972656 L 186.523438 291.972656 L 186.523438 333.359375 L 152.886719 333.359375 Z M 152.886719 291.972656 " fill-opacity="1" fill-rule="nonzero"/></g></g><g clip-path="url(#ae61effeaf)"><g clip-path="url(#229cd39bf1)"><g clip-path="url(#014718eb52)"><path fill="#ffffff" d="M 130.523438 229.804688 L 154.875 250.039062 L 124.917969 286.09375 L 100.5625 265.859375 Z M 130.523438 229.804688 " fill-opacity="1" fill-rule="nonzero"/></g></g></g><g clip-path="url(#80877339d6)"><g clip-path="url(#1162d77d94)"><path fill="#ffffff" d="M 192.003906 292.835938 L 225.640625 292.835938 L 225.640625 334.226562 L 192.003906 334.226562 Z M 192.003906 292.835938 " fill-opacity="1" fill-rule="nonzero"/></g></g></svg>