<svg xmlns="http://www.w3.org/2000/svg" xmlns:xlink="http://www.w3.org/1999/xlink" width="98" zoomAndPan="magnify" viewBox="0 0 73.5 31.5" height="42" preserveAspectRatio="xMidYMid meet" version="1.0"><defs><clipPath id="178c9b2283"><path d="M 0.328125 0 L 33.191406 0 L 33.191406 30.816406 L 0.328125 30.816406 Z M 0.328125 0 " clip-rule="nonzero"/></clipPath><clipPath id="4a0a2925f7"><path d="M 1.066406 0 L 32.378906 0 C 32.789062 0 33.117188 0.332031 33.117188 0.738281 L 33.117188 30.078125 C 33.117188 30.484375 32.789062 30.816406 32.378906 30.816406 L 1.066406 30.816406 C 0.660156 30.816406 0.328125 30.484375 0.328125 30.078125 L 0.328125 0.738281 C 0.328125 0.332031 0.660156 0 1.066406 0 Z M 1.066406 0 " clip-rule="nonzero"/></clipPath><clipPath id="21300f163d"><path d="M 39.238281 0 L 72 0 L 72 30.816406 L 39.238281 30.816406 Z M 39.238281 0 " clip-rule="nonzero"/></clipPath><clipPath id="43924243c8"><path d="M 39.976562 0 L 71.289062 0 C 71.699219 0 72.027344 0.332031 72.027344 0.738281 L 72.027344 30.078125 C 72.027344 30.484375 71.699219 30.816406 71.289062 30.816406 L 39.976562 30.816406 C 39.570312 30.816406 39.238281 30.484375 39.238281 30.078125 L 39.238281 0.738281 C 39.238281 0.332031 39.570312 0 39.976562 0 Z M 39.976562 0 " clip-rule="nonzero"/></clipPath><clipPath id="eea3d34dfa"><path d="M 18.113281 0 L 50.914062 0 L 50.914062 15.410156 L 18.113281 15.410156 Z M 18.113281 0 " clip-rule="nonzero"/></clipPath><clipPath id="671cc97187"><path d="M 18.851562 0 L 50.164062 0 C 50.574219 0 50.902344 0.332031 50.902344 0.738281 L 50.902344 14.671875 C 50.902344 15.078125 50.574219 15.410156 50.164062 15.410156 L 18.851562 15.410156 C 18.445312 15.410156 18.113281 15.078125 18.113281 14.671875 L 18.113281 0.738281 C 18.113281 0.332031 18.445312 0 18.851562 0 Z M 18.851562 0 " clip-rule="nonzero"/></clipPath></defs><g clip-path="url(#178c9b2283)"><g clip-path="url(#4a0a2925f7)"><path fill="#304086" d="M 0.328125 0 L 33.070312 0 L 33.070312 30.816406 L 0.328125 30.816406 Z M 0.328125 0 " fill-opacity="1" fill-rule="nonzero"/></g></g><g clip-path="url(#21300f163d)"><g clip-path="url(#43924243c8)"><path fill="#304086" d="M 39.238281 0 L 71.980469 0 L 71.980469 30.816406 L 39.238281 30.816406 Z M 39.238281 0 " fill-opacity="1" fill-rule="nonzero"/></g></g><g clip-path="url(#eea3d34dfa)"><g clip-path="url(#671cc97187)"><path fill="#304086" d="M 18.113281 0 L 50.914062 0 L 50.914062 15.410156 L 18.113281 15.410156 Z M 18.113281 0 " fill-opacity="1" fill-rule="nonzero"/></g></g></svg>