<svg xmlns="http://www.w3.org/2000/svg" xmlns:xlink="http://www.w3.org/1999/xlink" width="212" zoomAndPan="magnify" viewBox="0 0 159 86.999996" height="116" preserveAspectRatio="xMidYMid meet" version="1.0"><defs><clipPath id="38a48cf045"><path d="M 37.074219 5.015625 L 123.066406 5.015625 L 123.066406 25.941406 L 37.074219 25.941406 Z M 37.074219 5.015625 " clip-rule="nonzero"/></clipPath><clipPath id="665f8955d8"><path d="M 37.121094 25.941406 L 37.121094 5.015625 L 80.09375 16.964844 L 123.066406 5.015625 L 123.066406 25.941406 Z M 37.121094 25.941406 " clip-rule="nonzero"/></clipPath><clipPath id="e0978f1c0b"><path d="M 22.207031 25.949219 L 140.527344 25.949219 L 140.527344 86.769531 L 22.207031 86.769531 Z M 22.207031 25.949219 " clip-rule="nonzero"/></clipPath><clipPath id="d5806a8aa5"><path d="M 49.207031 25.949219 L 113.292969 25.949219 C 120.453125 25.949219 127.324219 28.792969 132.386719 33.855469 C 137.449219 38.917969 140.292969 45.789062 140.292969 52.949219 L 140.292969 59.769531 C 140.292969 66.929688 137.449219 73.796875 132.386719 78.863281 C 127.324219 83.925781 120.453125 86.769531 113.292969 86.769531 L 49.207031 86.769531 C 42.046875 86.769531 35.179688 83.925781 30.117188 78.863281 C 25.054688 73.796875 22.207031 66.929688 22.207031 59.769531 L 22.207031 52.949219 C 22.207031 45.789062 25.054688 38.917969 30.117188 33.855469 C 35.179688 28.792969 42.046875 25.949219 49.207031 25.949219 Z M 49.207031 25.949219 " clip-rule="nonzero"/></clipPath><clipPath id="ff55027bdf"><path d="M 101 7 L 152 7 L 152 60 L 101 60 Z M 101 7 " clip-rule="nonzero"/></clipPath><clipPath id="49b769ca94"><path d="M 93.738281 24.492188 L 122.851562 -0.00390625 L 159.019531 42.988281 L 129.90625 67.484375 Z M 93.738281 24.492188 " clip-rule="nonzero"/></clipPath><clipPath id="95ec798893"><path d="M 108.292969 12.242188 C 116.335938 5.480469 128.335938 6.515625 135.101562 14.554688 L 146.699219 28.339844 C 153.460938 36.378906 152.425781 48.382812 144.386719 55.144531 C 136.347656 61.910156 124.34375 60.875 117.582031 52.835938 L 105.984375 39.050781 C 99.21875 31.007812 100.253906 19.007812 108.292969 12.242188 Z M 108.292969 12.242188 " clip-rule="nonzero"/></clipPath><clipPath id="3840c09ce6"><path d="M 7 7 L 58 7 L 58 60 L 7 60 Z M 7 7 " clip-rule="nonzero"/></clipPath><clipPath id="2b1833b456"><path d="M 36.316406 0.0390625 L 65.304688 24.6875 L 28.90625 67.488281 L -0.078125 42.839844 Z M 36.316406 0.0390625 " clip-rule="nonzero"/></clipPath><clipPath id="0979cc1bfb"><path d="M 50.808594 12.363281 C 58.8125 19.171875 59.785156 31.179688 52.980469 39.183594 L 41.308594 52.90625 C 34.503906 60.910156 22.496094 61.882812 14.492188 55.074219 C 6.488281 48.269531 5.515625 36.261719 12.324219 28.257812 L 23.992188 14.535156 C 30.796875 6.53125 42.804688 5.558594 50.808594 12.363281 Z M 50.808594 12.363281 " clip-rule="nonzero"/></clipPath></defs><g clip-path="url(#38a48cf045)"><g clip-path="url(#665f8955d8)"><path fill="#fffab7" d="M 123.066406 25.941406 L 37.15625 25.941406 L 37.15625 5.015625 L 123.066406 5.015625 Z M 123.066406 25.941406 " fill-opacity="1" fill-rule="nonzero"/></g></g><g clip-path="url(#e0978f1c0b)"><g clip-path="url(#d5806a8aa5)"><path fill="#fffab7" d="M 22.207031 25.949219 L 140.289062 25.949219 L 140.289062 86.769531 L 22.207031 86.769531 Z M 22.207031 25.949219 " fill-opacity="1" fill-rule="nonzero"/></g></g><g clip-path="url(#ff55027bdf)"><g clip-path="url(#49b769ca94)"><g clip-path="url(#95ec798893)"><path fill="#fffab7" d="M 93.738281 24.492188 L 122.851562 -0.00390625 L 158.925781 42.875 L 129.808594 67.371094 Z M 93.738281 24.492188 " fill-opacity="1" fill-rule="nonzero"/></g></g></g><g clip-path="url(#3840c09ce6)"><g clip-path="url(#2b1833b456)"><g clip-path="url(#0979cc1bfb)"><path fill="#fffab7" d="M 36.316406 0.0390625 L 65.304688 24.6875 L 29.003906 67.375 L 0.0195312 42.726562 Z M 36.316406 0.0390625 " fill-opacity="1" fill-rule="nonzero"/></g></g></g></svg>