<svg xmlns="http://www.w3.org/2000/svg" xmlns:xlink="http://www.w3.org/1999/xlink" width="98" zoomAndPan="magnify" viewBox="0 0 73.5 20.25" height="27" preserveAspectRatio="xMidYMid meet" version="1.0"><defs><clipPath id="68fe97bc04"><path d="M 1.070312 0 L 33.214844 0 L 33.214844 19.40625 L 1.070312 19.40625 Z M 1.070312 0 " clip-rule="nonzero"/></clipPath><clipPath id="8dc1499e9d"><path d="M 10.773438 0 L 23.5 0 C 26.074219 0 28.542969 1.023438 30.363281 2.84375 C 32.183594 4.660156 33.203125 7.128906 33.203125 9.703125 C 33.203125 12.277344 32.183594 14.746094 30.363281 16.566406 C 28.542969 18.386719 26.074219 19.40625 23.5 19.40625 L 10.773438 19.40625 C 8.203125 19.40625 5.734375 18.386719 3.914062 16.566406 C 2.09375 14.746094 1.070312 12.277344 1.070312 9.703125 C 1.070312 7.128906 2.09375 4.660156 3.914062 2.84375 C 5.734375 1.023438 8.203125 0 10.773438 0 Z M 10.773438 0 " clip-rule="nonzero"/></clipPath><clipPath id="93632bf4d5"><path d="M 1.074219 0 L 32.894531 0 L 32.894531 19.527344 L 1.074219 19.527344 Z M 1.074219 0 " clip-rule="nonzero"/></clipPath><clipPath id="e444a54971"><path d="M 10.773438 0 L 23.496094 0 C 26.070312 0 28.535156 1.023438 30.355469 2.839844 C 32.175781 4.660156 33.195312 7.128906 33.195312 9.703125 C 33.195312 12.273438 32.175781 14.742188 30.355469 16.5625 C 28.535156 18.378906 26.070312 19.402344 23.496094 19.402344 L 10.773438 19.402344 C 8.199219 19.402344 5.734375 18.378906 3.914062 16.5625 C 2.09375 14.742188 1.074219 12.273438 1.074219 9.703125 C 1.074219 7.128906 2.09375 4.660156 3.914062 2.839844 C 5.734375 1.023438 8.199219 0 10.773438 0 Z M 10.773438 0 " clip-rule="nonzero"/></clipPath><clipPath id="f40e3aff14"><path d="M 39.175781 0 L 71.320312 0 L 71.320312 19.40625 L 39.175781 19.40625 Z M 39.175781 0 " clip-rule="nonzero"/></clipPath><clipPath id="4f11b1c84b"><path d="M 48.878906 0 L 61.605469 0 C 64.179688 0 66.644531 1.023438 68.464844 2.84375 C 70.285156 4.660156 71.308594 7.128906 71.308594 9.703125 C 71.308594 12.277344 70.285156 14.746094 68.464844 16.566406 C 66.644531 18.386719 64.179688 19.40625 61.605469 19.40625 L 48.878906 19.40625 C 46.304688 19.40625 43.835938 18.386719 42.015625 16.566406 C 40.195312 14.746094 39.175781 12.277344 39.175781 9.703125 C 39.175781 7.128906 40.195312 4.660156 42.015625 2.84375 C 43.835938 1.023438 46.304688 0 48.878906 0 Z M 48.878906 0 " clip-rule="nonzero"/></clipPath><clipPath id="8b863c06f3"><path d="M 39.175781 0 L 70.996094 0 L 70.996094 19.527344 L 39.175781 19.527344 Z M 39.175781 0 " clip-rule="nonzero"/></clipPath><clipPath id="9f8e5a716f"><path d="M 48.878906 0 L 61.597656 0 C 64.171875 0 66.640625 1.023438 68.460938 2.839844 C 70.277344 4.660156 71.300781 7.128906 71.300781 9.703125 C 71.300781 12.273438 70.277344 14.742188 68.460938 16.5625 C 66.640625 18.378906 64.171875 19.402344 61.597656 19.402344 L 48.878906 19.402344 C 46.304688 19.402344 43.835938 18.378906 42.015625 16.5625 C 40.199219 14.742188 39.175781 12.273438 39.175781 9.703125 C 39.175781 7.128906 40.199219 4.660156 42.015625 2.839844 C 43.835938 1.023438 46.304688 0 48.878906 0 Z M 48.878906 0 " clip-rule="nonzero"/></clipPath></defs><g clip-path="url(#68fe97bc04)"><g clip-path="url(#8dc1499e9d)"><path fill="#4b3030" d="M 1.070312 0 L 33.214844 0 L 33.214844 19.40625 L 1.070312 19.40625 Z M 1.070312 0 " fill-opacity="1" fill-rule="nonzero"/></g></g><g clip-path="url(#93632bf4d5)"><g clip-path="url(#e444a54971)"><path stroke-linecap="butt" transform="matrix(0.723214, 0, 0, 0.723214, 1.072351, 0.00000000000006038)" fill="none" stroke-linejoin="miter" d="M 13.41385 -0.000000000000083489 L 31.005674 -0.000000000000083489 C 34.565088 -0.000000000000083489 37.973267 1.415124 40.490243 3.926698 C 43.007218 6.443674 44.416941 9.857254 44.416941 13.416668 C 44.416941 16.970681 43.007218 20.384262 40.490243 22.901237 C 37.973267 25.412812 34.565088 26.827935 31.005674 26.827935 L 13.41385 26.827935 C 9.854436 26.827935 6.446257 25.412812 3.929281 22.901237 C 1.412306 20.384262 0.00258322 16.970681 0.00258322 13.416668 C 0.00258322 9.857254 1.412306 6.443674 3.929281 3.926698 C 6.446257 1.415124 9.854436 -0.000000000000083489 13.41385 -0.000000000000083489 Z M 13.41385 -0.000000000000083489 " stroke="#ffffff" stroke-width="4" stroke-opacity="1" stroke-miterlimit="4"/></g></g><g clip-path="url(#f40e3aff14)"><g clip-path="url(#4f11b1c84b)"><path fill="#4b3030" d="M 39.175781 0 L 71.320312 0 L 71.320312 19.40625 L 39.175781 19.40625 Z M 39.175781 0 " fill-opacity="1" fill-rule="nonzero"/></g></g><g clip-path="url(#8b863c06f3)"><g clip-path="url(#9f8e5a716f)"><path stroke-linecap="butt" transform="matrix(0.723214, 0, 0, 0.723214, 39.175741, 0.00000000000001927)" fill="none" stroke-linejoin="miter" d="M 13.416724 -0.000000000000026645 L 31.003146 -0.000000000000026645 C 34.56256 -0.000000000000026645 37.976141 1.415124 40.493116 3.926698 C 43.004691 6.443674 44.419815 9.857254 44.419815 13.416668 C 44.419815 16.970681 43.004691 20.384262 40.493116 22.901237 C 37.976141 25.412812 34.56256 26.827935 31.003146 26.827935 L 13.416724 26.827935 C 9.85731 26.827935 6.44373 25.412812 3.926754 22.901237 C 1.415179 20.384262 0.0000558616 16.970681 0.0000558616 13.416668 C 0.0000558616 9.857254 1.415179 6.443674 3.926754 3.926698 C 6.44373 1.415124 9.85731 -0.000000000000026645 13.416724 -0.000000000000026645 Z M 13.416724 -0.000000000000026645 " stroke="#ffffff" stroke-width="4" stroke-opacity="1" stroke-miterlimit="4"/></g></g></svg>